<svg width="33" height="20" viewBox="0 0 33 20" fill="none" xmlns="http://www.w3.org/2000/svg">
<g clip-path="url(#clip0_172_577)">
<path d="M12.0264 2.12347H20.9402V17.7329H12.0264V2.12347Z" fill="#FF5F00"/>
<path d="M12.5927 9.92826C12.5927 6.75678 14.1208 3.94372 16.4694 2.12349C14.7434 0.799748 12.5645 0 10.1875 0C4.55593 0 0 4.44007 0 9.92826C0 15.4165 4.55593 19.8565 10.1873 19.8565C12.5644 19.8565 14.7433 19.0568 16.4694 17.7329C14.1208 15.9403 12.5927 13.0997 12.5927 9.92826Z" fill="#EB001B"/>
<path d="M32.9675 9.92826C32.9675 15.4163 28.4116 19.8565 22.7802 19.8565C20.4031 19.8565 18.2242 19.0568 16.498 17.7329C18.8751 15.9128 20.3749 13.0997 20.3749 9.92826C20.3749 6.75678 18.8467 3.94372 16.498 2.12349C18.2241 0.799748 20.4031 0 22.7802 0C28.4116 0 32.9675 4.46771 32.9675 9.92826Z" fill="#F79E1B"/>
</g>
<defs>
<clipPath id="clip0_172_577">
<rect width="33" height="20" fill="white"/>
</clipPath>
</defs>
</svg>
