<svg width="60" height="20" viewBox="0 0 60 20" fill="none" xmlns="http://www.w3.org/2000/svg">
<path d="M31.0305 6.39377C30.9963 9.17985 33.4359 10.7345 35.2737 11.6589C37.1618 12.6073 37.796 13.2155 37.7885 14.0637C37.7745 15.3617 36.2824 15.9346 34.8863 15.9568C32.4504 15.9958 31.0341 15.278 29.9081 14.7351L29.0306 18.9735C30.1603 19.5108 32.2521 19.9794 34.4212 20C39.513 20 42.8442 17.4055 42.8623 13.3829C42.8822 8.27769 36.0213 7.99511 36.0682 5.71321C36.0844 5.02129 36.724 4.28292 38.1255 4.09518C38.8193 4.00034 40.7344 3.92776 42.9056 4.95984L43.7578 0.859098C42.5902 0.420235 41.0895 0 39.221 0C34.4285 0 31.0577 2.6298 31.0305 6.39377ZM51.9464 0.35322C51.0166 0.35322 50.2331 0.91305 49.8834 1.77215L42.6101 19.6988H47.6981L48.7106 16.8104H54.9281L55.5155 19.6988H60L56.0866 0.35322H51.9464ZM52.6582 5.57918L54.1266 12.8437H50.1052L52.6582 5.57918ZM24.8616 0.353462L20.8509 19.6986H25.6995L29.7082 0.352978L24.8616 0.353462ZM17.689 0.353462L12.6424 13.5206L10.601 2.32472C10.3615 1.0749 9.41555 0.35322 8.36508 0.35322H0.115547L0 0.914984C1.69359 1.29433 3.61781 1.90618 4.78359 2.56084C5.49703 2.96076 5.70047 3.31035 5.93484 4.26066L9.80133 19.6988H14.925L22.7803 0.35322L17.689 0.353462Z" fill="url(#paint0_linear_172_581)"/>
<defs>
<linearGradient id="paint0_linear_172_581" x1="2758.44" y1="60.12" x2="2818.19" y2="-1993.8" gradientUnits="userSpaceOnUse">
<stop stop-color="#222357"/>
<stop offset="1" stop-color="#254AA5"/>
</linearGradient>
</defs>
</svg>
